<?xml version="1.0" encoding="UTF-8" standalone="no"?>
<svg
   xmlns:dc="http://purl.org/dc/elements/1.1/"
   xmlns:cc="http://creativecommons.org/ns#"
   xmlns:rdf="http://www.w3.org/1999/02/22-rdf-syntax-ns#"
   xmlns:svg="http://www.w3.org/2000/svg"
   xmlns="http://www.w3.org/2000/svg"
   xmlns:sodipodi="http://sodipodi.sourceforge.net/DTD/sodipodi-0.dtd"
   xmlns:inkscape="http://www.inkscape.org/namespaces/inkscape"
   width="1920"
   height="1080"
   id="svg2"
   version="1.1"
   inkscape:version="0.91 r13725"
   sodipodi:docname="green-pattern.svg">
  <metadata
     id="metadata174">
    <rdf:RDF>
      <cc:Work
         rdf:about="">
        <dc:format>image/svg+xml</dc:format>
        <dc:type
           rdf:resource="http://purl.org/dc/dcmitype/StillImage" />
      </cc:Work>
    </rdf:RDF>
  </metadata>
  <defs
     id="defs172" />
  <sodipodi:namedview
     pagecolor="#ffffff"
     bordercolor="#666666"
     borderopacity="1"
     objecttolerance="10"
     gridtolerance="10"
     guidetolerance="10"
     inkscape:pageopacity="0"
     inkscape:pageshadow="2"
     inkscape:window-width="1920"
     inkscape:window-height="1003"
     id="namedview170"
     showgrid="false"
     inkscape:zoom="0.1765625"
     inkscape:cx="960"
     inkscape:cy="540"
     inkscape:window-x="-9"
     inkscape:window-y="-9"
     inkscape:window-maximized="1"
     inkscape:current-layer="svg2" />
  <path
     d="m 2047.0381,1600.5168 -59,2 -1277.00002,52 z"
     id="path4"
     inkscape:connector-curvature="0"
     style="fill:#e9f6b8;stroke:#e9f6b8;stroke-width:1.50999999" />
  <path
     d="m 2047.0381,1600.5168 -1336.00002,54 -1294,63 z"
     id="path6"
     inkscape:connector-curvature="0"
     style="fill:#b7e0a3;stroke:#b7e0a3;stroke-width:1.50999999" />
  <path
     d="m 711.03808,1654.5168 -538,-57 -756,120 z"
     id="path8"
     inkscape:connector-curvature="0"
     style="fill:#99c68d;stroke:#99c68d;stroke-width:1.50999999" />
  <path
     d="m -374.96192,-354.48324 678,-249 -891,88 z"
     id="path10"
     inkscape:connector-curvature="0"
     style="fill:#096435;stroke:#096435;stroke-width:1.50999999" />
  <path
     d="m -574.96192,57.516761 200,-412.000001 -213,-161 z"
     id="path12"
     inkscape:connector-curvature="0"
     style="fill:#046536;stroke:#046536;stroke-width:1.50999999" />
  <path
     d="m -304.96192,1169.5168 224.000003,-542.00004 -541.000003,-1 z"
     id="path14"
     inkscape:connector-curvature="0"
     style="fill:#5da160;stroke:#5da160;stroke-width:1.50999999" />
  <path
     d="m -437.96192,293.51676 -137,-235.999999 -47,568.999999 z"
     id="path16"
     inkscape:connector-curvature="0"
     style="fill:#2a8449;stroke:#2a8449;stroke-width:1.50999999" />
  <path
     d="m -574.96192,57.516761 -13,-573.000001 -34,1142 z"
     id="path18"
     inkscape:connector-curvature="0"
     style="fill:#18723d;stroke:#18723d;stroke-width:1.50999999" />
  <path
     d="m -582.96192,1717.5168 379,-282 -427,-74 z"
     id="path20"
     inkscape:connector-curvature="0"
     style="fill:#86ad76;stroke:#86ad76;stroke-width:1.50999999" />
  <path
     d="m -203.96192,1435.5168 -101,-266 -326,192 z"
     id="path22"
     inkscape:connector-curvature="0"
     style="fill:#80ae70;stroke:#80ae70;stroke-width:1.50999999" />
  <path
     d="m -304.96192,1169.5168 -317,-543.00004 -9,735.00004 z"
     id="path24"
     inkscape:connector-curvature="0"
     style="fill:#6ca164;stroke:#6ca164;stroke-width:1.50999999" />
  <path
     d="m 1107.0381,-378.48324 785,-147 -1589.00002,-78 z"
     id="path26"
     inkscape:connector-curvature="0"
     style="fill:#57935a;stroke:#57935a;stroke-width:1.50999999" />
  <path
     d="m -80.961917,627.51676 -357.000003,-334 -184,333 z"
     id="path28"
     inkscape:connector-curvature="0"
     style="fill:#409455;stroke:#409455;stroke-width:1.50999999" />
  <path
     d="m -57.961917,-148.48324 -317.000003,-206 -200,412.000001 z"
     id="path30"
     inkscape:connector-curvature="0"
     style="fill:#10723b;stroke:#10723b;stroke-width:1.50999999" />
  <path
     d="m 173.03808,1597.5168 -377,-162 -379,282 z"
     id="path32"
     inkscape:connector-curvature="0"
     style="fill:#8eb880;stroke:#8eb880;stroke-width:1.50999999" />
  <path
     d="m -437.96192,293.51676 380.000003,-442 -517.000003,206.000001 z"
     id="path34"
     inkscape:connector-curvature="0"
     style="fill:#1c7d41;stroke:#1c7d41;stroke-width:1.50999999" />
  <path
     d="m -80.961917,627.51676 68,-449 -425.000003,115 z"
     id="path36"
     inkscape:connector-curvature="0"
     style="fill:#379552;stroke:#379552;stroke-width:1.50999999" />
  <path
     d="m -12.961917,178.51676 -45,-327 -380.000003,442 z"
     id="path38"
     inkscape:connector-curvature="0"
     style="fill:#258646;stroke:#258646;stroke-width:1.50999999" />
  <path
     d="m -57.961917,-148.48324 360.999997,-455 -678,249 z"
     id="path40"
     inkscape:connector-curvature="0"
     style="fill:#12723b;stroke:#12723b;stroke-width:1.50999999" />
  <path
     d="m -203.96192,1435.5168 279.000003,-76 -380.000003,-190 z"
     id="path42"
     inkscape:connector-curvature="0"
     style="fill:#87b774;stroke:#87b774;stroke-width:1.50999999" />
  <path
     d="m 75.038083,1359.5168 -156,-732.00004 -224.000003,542.00004 z"
     id="path44"
     inkscape:connector-curvature="0"
     style="fill:#77b26b;stroke:#77b26b;stroke-width:1.50999999" />
  <path
     d="m 1988.0381,1602.5168 -942,-61 -335.00002,113 z"
     id="path46"
     inkscape:connector-curvature="0"
     style="fill:#d7eeae;stroke:#d7eeae;stroke-width:1.50999999" />
  <path
     d="m 524.03808,-479.48324 583.00002,101 -804.00002,-225 z"
     id="path48"
     inkscape:connector-curvature="0"
     style="fill:#37874d;stroke:#37874d;stroke-width:1.50999999" />
  <path
     d="m 175.03808,493.51676 -187.999997,-315 -68,449 z"
     id="path50"
     inkscape:connector-curvature="0"
     style="fill:#44a058;stroke:#44a058;stroke-width:1.50999999" />
  <path
     d="m 75.038083,1359.5168 55.999997,-778.00004 -211.999997,46 z"
     id="path52"
     inkscape:connector-curvature="0"
     style="fill:#6cb169;stroke:#6cb169;stroke-width:1.50999999" />
  <path
     d="m 173.03808,1597.5168 -97.999997,-238 -279.000003,76 z"
     id="path54"
     inkscape:connector-curvature="0"
     style="fill:#92c07c;stroke:#92c07c;stroke-width:1.50999999" />
  <path
     d="m 426.03808,1336.5168 207,-644.00004 -502,-111 z"
     id="path56"
     inkscape:connector-curvature="0"
     style="fill:#7ac475;stroke:#7ac475;stroke-width:1.50999999" />
  <path
     d="m 426.03808,1336.5168 -295,-755.00004 -55.999997,778.00004 z"
     id="path58"
     inkscape:connector-curvature="0"
     style="fill:#85c276;stroke:#85c276;stroke-width:1.50999999" />
  <path
     d="M -12.961917,178.51676 366.03808,-79.483239 -57.961917,-148.48324 Z"
     id="path60"
     inkscape:connector-curvature="0"
     style="fill:#288946;stroke:#288946;stroke-width:1.50999999" />
  <path
     d="m 366.03808,-79.483239 -63,-524.000001 -360.999997,455 z"
     id="path62"
     inkscape:connector-curvature="0"
     style="fill:#208244;stroke:#208244;stroke-width:1.50999999" />
  <path
     d="m 131.03808,581.51676 44,-88 -255.999997,134 z"
     id="path64"
     inkscape:connector-curvature="0"
     style="fill:#52a860;stroke:#52a860;stroke-width:1.50999999" />
  <path
     d="m 175.03808,493.51676 408,-331 -595.999997,16 z"
     id="path66"
     inkscape:connector-curvature="0"
     style="fill:#3ca358;stroke:#3ca358;stroke-width:1.50999999" />
  <path
     d="m 583.03808,162.51676 -217,-241.999999 -378.999997,257.999999 z"
     id="path68"
     inkscape:connector-curvature="0"
     style="fill:#359b52;stroke:#359b52;stroke-width:1.50999999" />
  <path
     d="m 366.03808,-79.483239 158,-400.000001 -221,-124 z"
     id="path70"
     inkscape:connector-curvature="0"
     style="fill:#248548;stroke:#248548;stroke-width:1.50999999" />
  <path
     d="m 173.03808,1597.5168 253,-261 -350.999997,23 z"
     id="path72"
     inkscape:connector-curvature="0"
     style="fill:#99ca82;stroke:#99ca82;stroke-width:1.50999999" />
  <path
     d="m 805.03808,1013.5168 -172,-321.00004 -207,644.00004 z"
     id="path74"
     inkscape:connector-curvature="0"
     style="fill:#93d082;stroke:#93d082;stroke-width:1.50999999" />
  <path
     d="m 633.03808,692.51676 -458,-199 -44,88 z"
     id="path76"
     inkscape:connector-curvature="0"
     style="fill:#5db568;stroke:#5db568;stroke-width:1.50999999" />
  <path
     d="m 633.03808,692.51676 -50,-530 -408,331 z"
     id="path78"
     inkscape:connector-curvature="0"
     style="fill:#57b567;stroke:#57b567;stroke-width:1.50999999" />
  <path
     d="m 711.03808,1654.5168 -285,-318 -253,261 z"
     id="path80"
     inkscape:connector-curvature="0"
     style="fill:#a5d68f;stroke:#a5d68f;stroke-width:1.50999999" />
  <path
     d="m 633.03808,692.51676 125,-130 -175,-400 z"
     id="path82"
     inkscape:connector-curvature="0"
     style="fill:#67bd6f;stroke:#67bd6f;stroke-width:1.50999999" />
  <path
     d="m 960.03808,-201.48324 -436,-278 -158,400.000001 z"
     id="path84"
     inkscape:connector-curvature="0"
     style="fill:#3b9452;stroke:#3b9452;stroke-width:1.50999999" />
  <path
     d="m 583.03808,162.51676 377,-364 -594,122.000001 z"
     id="path86"
     inkscape:connector-curvature="0"
     style="fill:#449f58;stroke:#449f58;stroke-width:1.50999999" />
  <path
     d="m 711.03808,1654.5168 94,-641 -379,323 z"
     id="path88"
     inkscape:connector-curvature="0"
     style="fill:#a9d98e;stroke:#a9d98e;stroke-width:1.50999999" />
  <path
     d="m 1046.0381,1541.5168 -241.00002,-528 -94,641 z"
     id="path90"
     inkscape:connector-curvature="0"
     style="fill:#b9e198;stroke:#b9e198;stroke-width:1.50999999" />
  <path
     d="m 805.03808,1013.5168 15,-243.00004 -187,-78 z"
     id="path92"
     inkscape:connector-curvature="0"
     style="fill:#8cce80;stroke:#8cce80;stroke-width:1.50999999" />
  <path
     d="m 960.03808,-201.48324 147.00002,-177 -583.00002,-101 z"
     id="path94"
     inkscape:connector-curvature="0"
     style="fill:#499658;stroke:#499658;stroke-width:1.50999999" />
  <path
     d="m 758.03808,562.51676 501.00002,-115 -676.00002,-285 z"
     id="path96"
     inkscape:connector-curvature="0"
     style="fill:#6ec072;stroke:#6ec072;stroke-width:1.50999999" />
  <path
     d="m 1259.0381,447.51676 -299.00002,-649 -377,364 z"
     id="path98"
     inkscape:connector-curvature="0"
     style="fill:#62b368;stroke:#62b368;stroke-width:1.50999999" />
  <path
     d="m 820.03808,770.51676 -62,-208 -125,130 z"
     id="path100"
     inkscape:connector-curvature="0"
     style="fill:#7dc87a;stroke:#7dc87a;stroke-width:1.50999999" />
  <path
     d="m 1376.0381,-315.48324 516,-210 -785,147 z"
     id="path102"
     inkscape:connector-curvature="0"
     style="fill:#6ea165;stroke:#6ea165;stroke-width:1.50999999" />
  <path
     d="m 1046.0381,1541.5168 222,-150 -463.00002,-378 z"
     id="path104"
     inkscape:connector-curvature="0"
     style="fill:#c0e599;stroke:#c0e599;stroke-width:1.50999999" />
  <path
     d="m 1195.0381,567.51676 64,-120 -501.00002,115 z"
     id="path106"
     inkscape:connector-curvature="0"
     style="fill:#87cc7d;stroke:#87cc7d;stroke-width:1.50999999" />
  <path
     d="m 820.03808,770.51676 375.00002,-203 -437.00002,-5 z"
     id="path108"
     inkscape:connector-curvature="0"
     style="fill:#86cc7e;stroke:#86cc7e;stroke-width:1.50999999" />
  <path
     d="m 1364.0381,996.51676 -544.00002,-226 -15,243.00004 z"
     id="path110"
     inkscape:connector-curvature="0"
     style="fill:#a4d98a;stroke:#a4d98a;stroke-width:1.50999999" />
  <path
     d="m 1268.0381,1391.5168 96,-395.00004 -559.00002,17.00004 z"
     id="path112"
     inkscape:connector-curvature="0"
     style="fill:#bde495;stroke:#bde495;stroke-width:1.50999999" />
  <path
     d="m 1364.0381,996.51676 -169,-429 -375.00002,203 z"
     id="path114"
     inkscape:connector-curvature="0"
     style="fill:#a1d888;stroke:#a1d888;stroke-width:1.50999999" />
  <path
     d="m 1988.0381,1602.5168 -720,-211 -222,150 z"
     id="path116"
     inkscape:connector-curvature="0"
     style="fill:#e0f2ac;stroke:#e0f2ac;stroke-width:1.50999999" />
  <path
     d="m 1259.0381,447.51676 304,-280 -603.00002,-369 z"
     id="path118"
     inkscape:connector-curvature="0"
     style="fill:#78bc70;stroke:#78bc70;stroke-width:1.50999999" />
  <path
     d="m 1563.0381,167.51676 -187,-483 -416.00002,114 z"
     id="path120"
     inkscape:connector-curvature="0"
     style="fill:#6fae68;stroke:#6fae68;stroke-width:1.50999999" />
  <path
     d="m 1376.0381,-315.48324 -269,-63 -147.00002,177 z"
     id="path122"
     inkscape:connector-curvature="0"
     style="fill:#5fa160;stroke:#5fa160;stroke-width:1.50999999" />
  <path
     d="m 1364.0381,996.51676 163,-138 -332,-291 z"
     id="path124"
     inkscape:connector-curvature="0"
     style="fill:#b1df90;stroke:#b1df90;stroke-width:1.50999999" />
  <path
     d="m 1527.0381,858.51676 -268,-411 -64,120 z"
     id="path126"
     inkscape:connector-curvature="0"
     style="fill:#9fd789;stroke:#9fd789;stroke-width:1.50999999" />
  <path
     d="m 1563.0381,167.51676 173,-190.999999 -360,-292.000001 z"
     id="path128"
     inkscape:connector-curvature="0"
     style="fill:#80b770;stroke:#80b770;stroke-width:1.50999999" />
  <path
     d="m 1706.0381,1042.5168 -342,-46.00004 -96,395.00004 z"
     id="path130"
     inkscape:connector-curvature="0"
     style="fill:#cfec9e;stroke:#cfec9e;stroke-width:1.50999999" />
  <path
     d="m 1527.0381,858.51676 36,-691 -304,280 z"
     id="path132"
     inkscape:connector-curvature="0"
     style="fill:#9bd486;stroke:#9bd486;stroke-width:1.50999999" />
  <path
     d="m 1988.0381,1602.5168 -282,-560 -438,349 z"
     id="path134"
     inkscape:connector-curvature="0"
     style="fill:#e4f5ab;stroke:#e4f5ab;stroke-width:1.50999999" />
  <path
     d="m 1770.0381,184.51676 -207,-17 -36,691 z"
     id="path136"
     inkscape:connector-curvature="0"
     style="fill:#9dd486;stroke:#9dd486;stroke-width:1.50999999" />
  <path
     d="m 1706.0381,1042.5168 -179,-184.00004 -163,138 z"
     id="path138"
     inkscape:connector-curvature="0"
     style="fill:#c7e89a;stroke:#c7e89a;stroke-width:1.50999999" />
  <path
     d="m 1736.0381,-23.483239 156,-502.000001 -516,210 z"
     id="path140"
     inkscape:connector-curvature="0"
     style="fill:#7cad6e;stroke:#7cad6e;stroke-width:1.50999999" />
  <path
     d="m 1988.0381,1602.5168 57,-412 -339,-148 z"
     id="path142"
     inkscape:connector-curvature="0"
     style="fill:#ebf7af;stroke:#ebf7af;stroke-width:1.50999999" />
  <path
     d="m 1706.0381,1042.5168 122,-80.00004 -301,-104 z"
     id="path144"
     inkscape:connector-curvature="0"
     style="fill:#cdeb9e;stroke:#cdeb9e;stroke-width:1.50999999" />
  <path
     d="m 1828.0381,962.51676 -58,-778 -243,674 z"
     id="path146"
     inkscape:connector-curvature="0"
     style="fill:#b6e094;stroke:#b6e094;stroke-width:1.50999999" />
  <path
     d="m 1828.0381,962.51676 520,-278 -578,-500 z"
     id="path148"
     inkscape:connector-curvature="0"
     style="fill:#bce39a;stroke:#bce39a;stroke-width:1.50999999" />
  <path
     d="m 2013.0381,-432.48324 -121,-93 -156,502.000001 z"
     id="path150"
     inkscape:connector-curvature="0"
     style="fill:#82af72;stroke:#82af72;stroke-width:1.50999999" />
  <path
     d="m 1770.0381,184.51676 -34,-207.999999 -173,190.999999 z"
     id="path152"
     inkscape:connector-curvature="0"
     style="fill:#8dc47a;stroke:#8dc47a;stroke-width:1.50999999" />
  <path
     d="m 2348.0381,684.51676 41,-143 -619,-357 z"
     id="path154"
     inkscape:connector-curvature="0"
     style="fill:#b3dd9d;stroke:#b3dd9d;stroke-width:1.50999999" />
  <path
     d="m 2045.0381,1190.5168 -217,-228.00004 -122,80.00004 z"
     id="path156"
     inkscape:connector-curvature="0"
     style="fill:#dbf1a6;stroke:#dbf1a6;stroke-width:1.50999999" />
  <path
     d="m 1770.0381,184.51676 501,-164.999999 -535,-43 z"
     id="path158"
     inkscape:connector-curvature="0"
     style="fill:#94c47e;stroke:#94c47e;stroke-width:1.50999999" />
  <path
     d="m 2271.0381,19.516761 -258,-452.000001 -277,409.000001 z"
     id="path160"
     inkscape:connector-curvature="0"
     style="fill:#8eb979;stroke:#8eb979;stroke-width:1.50999999" />
  <path
     d="m 2389.0381,541.51676 -118,-521.999999 -501,164.999999 z"
     id="path162"
     inkscape:connector-curvature="0"
     style="fill:#a2d391;stroke:#a2d391;stroke-width:1.50999999" />
  <path
     d="m 2047.0381,1600.5168 -2,-410 -57,412 z"
     id="path164"
     inkscape:connector-curvature="0"
     style="fill:#f7fcba;stroke:#f7fcba;stroke-width:1.50999999" />
  <path
     d="m 2045.0381,1190.5168 303,-506.00004 -520,278 z"
     id="path166"
     inkscape:connector-curvature="0"
     style="fill:#d9f0aa;stroke:#d9f0aa;stroke-width:1.50999999" />
  <path
     d="m 2047.0381,1600.5168 301,-916.00004 -303,506.00004 z"
     id="path168"
     inkscape:connector-curvature="0"
     style="fill:#e9f6b6;stroke:#e9f6b6;stroke-width:1.50999999" />
</svg>
