<?xml version="1.0" encoding="iso-8859-1"?>
<!-- Generator: Adobe Illustrator 19.0.0, SVG Export Plug-In . SVG Version: 6.00 Build 0)  -->
<svg version="1.1" id="Capa_1" xmlns="http://www.w3.org/2000/svg" xmlns:xlink="http://www.w3.org/1999/xlink" x="0px" y="0px"
	 viewBox="0 0 512.004 512.004" style="enable-background:new 0 0 512.004 512.004;" xml:space="preserve">
<circle style="fill:#F9E7CD;" cx="256.804" cy="256.003" r="255.2"/>
<circle style="fill:#BA612E;" cx="130.86" cy="227.577" r="50.72"/>
<path style="fill:#FFC772;" d="M486.921,366.444c-26.228,54.571-71.31,98.372-126.798,122.975
	c-10.406,4.614-21.187,8.552-32.28,11.76c-14.312,4.146-29.155,7.062-44.394,8.646c-8.76,0.906-17.645,1.375-26.645,1.375
	c-101.382,0-188.952-59.113-230.128-144.756H486.921z"/>
<path style="fill:#F48944;" d="M360.123,489.42c-10.406,4.614-21.187,8.552-32.28,11.76c-14.312,4.146-29.155,7.062-44.394,8.646
	c-12.656-121.486-42.624-240.596-89.028-353.707l71.685-31.884c22.28,54.061,41.009,109.413,56.134,165.703
	C339.8,355.341,352.487,422.016,360.123,489.42z"/>
<path style="fill:#F99961;" d="M360.123,489.42c-10.406,4.614-21.187,8.552-32.28,11.76
	c-8.271-56.644-20.333-112.725-36.134-167.859c-4.802-16.749,4.323-34.332,20.801-40.02l9.729-3.364
	C339.8,355.341,352.487,422.016,360.123,489.42z"/>
<path style="fill:#3AB760;" d="M408.076,111.673c19.643-4.696,38.859-12.685,56.868-24.109
	c-43.94-69.169-125.762-99.68-201.239-81.697c-19.662,4.684-38.91,12.666-56.93,24.109l-2.309,0.55
	c-21.244-2.086-42.024-0.531-61.686,4.153C67.303,52.661,8.031,116.79,0,198.341c21.225,2.076,41.979,0.542,61.63-4.124"/>
<g>
	<circle style="fill:#C46C35;" cx="180.161" cy="207.369" r="50.72"/>
	<circle style="fill:#C46C35;" cx="293.011" cy="146.663" r="50.72"/>
</g>
<g>
	<path style="fill:#43C970;" d="M272.304,135.37c43.154,33.197,100.363,47.353,157.455,33.75
		c-11.97-50.24-43.174-90.873-83.944-115.955s-91.11-34.609-141.349-22.64c0.077,0.323,0.154,0.646,0.231,0.969
		c0.003,0.015,0.003,0.015,0.003,0.015"/>
	<path style="fill:#43C970;" d="M204.7,31.509c0,0,0,0-0.003-0.015c-0.077-0.323-0.154-0.646-0.231-0.969
		c-0.323,0.077-0.646,0.154-0.969,0.231C153.701,42.9,113.435,73.953,88.511,114.469c-25.081,40.771-34.609,91.11-22.64,141.349
		c56.124-13.372,100.248-50.731,124.116-98.636"/>
</g>
<path style="fill:#53D37A;" d="M265.042,282.964C180.539,229.869,151.21,117.612,203.501,30.76l0,0l0.072,0.044
	C290.253,82.99,314.877,196.635,265.042,282.964z"/>
<g>
</g>
<g>
</g>
<g>
</g>
<g>
</g>
<g>
</g>
<g>
</g>
<g>
</g>
<g>
</g>
<g>
</g>
<g>
</g>
<g>
</g>
<g>
</g>
<g>
</g>
<g>
</g>
<g>
</g>
</svg>
