<?xml version="1.0" encoding="iso-8859-1"?>
<!-- Generator: Adobe Illustrator 19.0.0, SVG Export Plug-In . SVG Version: 6.00 Build 0)  -->
<svg version="1.1" id="Layer_1" xmlns="http://www.w3.org/2000/svg" xmlns:xlink="http://www.w3.org/1999/xlink" x="0px" y="0px"
	 viewBox="0 0 512 512" style="enable-background:new 0 0 512 512;" xml:space="preserve">
<path style="fill:#D9472B;" d="M497.326,226.153L285.858,14.679C276.532,5.348,263.62,0,250.435,0H50.087
	C22.468,0,0,22.468,0,50.087v200.348c0,13.375,5.207,25.951,14.674,35.413l211.478,211.478c9.456,9.462,22.033,14.674,35.413,14.674
	c13.38,0,25.956-5.212,35.413-14.674l200.348-200.342c9.468-9.462,14.674-22.038,14.674-35.418
	C512,248.185,506.793,235.609,497.326,226.153z M105.739,144.696c-21.478,0-38.957-17.478-38.957-38.957
	s17.478-38.957,38.957-38.957s38.957,17.478,38.957,38.957S127.218,144.696,105.739,144.696z"/>
<path style="fill:#E6563A;" d="M0,250.435c0,13.375,5.207,25.951,14.674,35.413l211.478,211.478
	c9.456,9.462,22.033,14.674,35.413,14.674c13.38,0,25.956-5.212,35.413-14.674l100.175-100.173L133.271,133.271
	c-7.054,7.054-16.794,11.424-27.532,11.424c-21.478,0-38.957-17.478-38.957-38.957c0-10.739,4.37-20.478,11.424-27.532l-63.52-63.52
	C5.616,23.756,0,36.277,0,50.087V250.435z"/>
<path style="fill:#FFD9B3;" d="M354.967,356.799c-83.11,6.452-130.153,19.859-160.162-10.152
	c-21.924-21.925-24.878-55.639-2.76-77.766c19.465-19.454,39.767-14.152,63.772-11.25c-2.987-24.441-8.193-44.323,11.228-63.745
	c20.711-20.736,54.673-20.344,77.761,2.756C374.698,226.541,361.444,273.18,354.967,356.799z"/>
<path style="fill:#FFEFD9;" d="M354.967,356.799c0.045-0.579,0.097-1.114,0.141-1.69l-99.566-99.567
	c0.091,0.705,0.186,1.377,0.273,2.088c-24.005-2.902-44.307-8.204-63.772,11.25c-22.117,22.127-19.163,55.841,2.76,77.766
	C224.815,376.657,271.858,363.252,354.967,356.799z"/>
<g>
</g>
<g>
</g>
<g>
</g>
<g>
</g>
<g>
</g>
<g>
</g>
<g>
</g>
<g>
</g>
<g>
</g>
<g>
</g>
<g>
</g>
<g>
</g>
<g>
</g>
<g>
</g>
<g>
</g>
</svg>
